<mxfile host="app.diagrams.net" modified="2024-07-20T14:23:01.747Z" agent="Mozilla/5.0 (Windows NT 10.0; Win64; x64) AppleWebKit/537.36 (KHTML, like Gecko) Chrome/126.0.0.0 Safari/537.36" etag="UrQg6tTxqkZZKRPJH5-n" version="24.4.13" type="github">
  <diagram name="Page-1" id="I4codwGtsx4ktcuf7SxI">
    <mxGraphModel dx="1433" dy="628" grid="1" gridSize="10" guides="1" tooltips="1" connect="1" arrows="1" fold="1" page="1" pageScale="1" pageWidth="850" pageHeight="1100" math="0" shadow="0">
      <root>
        <mxCell id="0" />
        <mxCell id="1" parent="0" />
        <mxCell id="RbTk8ViVsOvQG0BCYPqt-3" value="" style="edgeStyle=orthogonalEdgeStyle;rounded=0;orthogonalLoop=1;jettySize=auto;html=1;" edge="1" parent="1" source="RbTk8ViVsOvQG0BCYPqt-1" target="RbTk8ViVsOvQG0BCYPqt-2">
          <mxGeometry relative="1" as="geometry" />
        </mxCell>
        <mxCell id="RbTk8ViVsOvQG0BCYPqt-5" value="" style="edgeStyle=orthogonalEdgeStyle;rounded=0;orthogonalLoop=1;jettySize=auto;html=1;" edge="1" parent="1" source="RbTk8ViVsOvQG0BCYPqt-1" target="RbTk8ViVsOvQG0BCYPqt-4">
          <mxGeometry relative="1" as="geometry" />
        </mxCell>
        <mxCell id="RbTk8ViVsOvQG0BCYPqt-7" value="" style="edgeStyle=orthogonalEdgeStyle;rounded=0;orthogonalLoop=1;jettySize=auto;html=1;" edge="1" parent="1" source="RbTk8ViVsOvQG0BCYPqt-1" target="RbTk8ViVsOvQG0BCYPqt-6">
          <mxGeometry relative="1" as="geometry" />
        </mxCell>
        <mxCell id="RbTk8ViVsOvQG0BCYPqt-8" style="edgeStyle=orthogonalEdgeStyle;rounded=0;orthogonalLoop=1;jettySize=auto;html=1;" edge="1" parent="1">
          <mxGeometry relative="1" as="geometry">
            <mxPoint x="550" y="150" as="targetPoint" />
            <mxPoint x="415" y="160" as="sourcePoint" />
            <Array as="points">
              <mxPoint x="480" y="160" />
              <mxPoint x="551" y="160" />
            </Array>
          </mxGeometry>
        </mxCell>
        <mxCell id="RbTk8ViVsOvQG0BCYPqt-11" value="" style="edgeStyle=orthogonalEdgeStyle;rounded=0;orthogonalLoop=1;jettySize=auto;html=1;" edge="1" parent="1" source="RbTk8ViVsOvQG0BCYPqt-1" target="RbTk8ViVsOvQG0BCYPqt-6">
          <mxGeometry relative="1" as="geometry" />
        </mxCell>
        <mxCell id="RbTk8ViVsOvQG0BCYPqt-15" style="edgeStyle=orthogonalEdgeStyle;rounded=0;orthogonalLoop=1;jettySize=auto;html=1;" edge="1" parent="1" target="RbTk8ViVsOvQG0BCYPqt-16">
          <mxGeometry relative="1" as="geometry">
            <mxPoint x="740" y="360" as="targetPoint" />
            <mxPoint x="420" y="160" as="sourcePoint" />
          </mxGeometry>
        </mxCell>
        <mxCell id="RbTk8ViVsOvQG0BCYPqt-26" value="" style="edgeStyle=orthogonalEdgeStyle;rounded=0;orthogonalLoop=1;jettySize=auto;html=1;" edge="1" parent="1" source="RbTk8ViVsOvQG0BCYPqt-1" target="RbTk8ViVsOvQG0BCYPqt-2">
          <mxGeometry relative="1" as="geometry" />
        </mxCell>
        <mxCell id="RbTk8ViVsOvQG0BCYPqt-1" value="&lt;font style=&quot;font-size: 14px;&quot;&gt;player 1&lt;/font&gt;&lt;div&gt;&lt;font size=&quot;3&quot;&gt;player 2&lt;/font&gt;&lt;/div&gt;&lt;div&gt;&lt;font size=&quot;3&quot;&gt;ball in center&lt;/font&gt;&lt;/div&gt;&lt;div&gt;&lt;font size=&quot;3&quot;&gt;middle line&lt;/font&gt;&lt;/div&gt;&lt;div&gt;&lt;font size=&quot;3&quot;&gt;score card&lt;/font&gt;&lt;/div&gt;" style="whiteSpace=wrap;html=1;aspect=fixed;" vertex="1" parent="1">
          <mxGeometry x="350" y="180" width="130" height="130" as="geometry" />
        </mxCell>
        <mxCell id="RbTk8ViVsOvQG0BCYPqt-2" value="player class" style="ellipse;whiteSpace=wrap;html=1;" vertex="1" parent="1">
          <mxGeometry x="375" y="60" width="80" height="80" as="geometry" />
        </mxCell>
        <mxCell id="RbTk8ViVsOvQG0BCYPqt-4" value="score board&lt;span style=&quot;background-color: initial;&quot;&gt;&amp;nbsp;class&lt;/span&gt;&lt;div&gt;&lt;div&gt;&lt;br&gt;&lt;/div&gt;&lt;/div&gt;" style="ellipse;whiteSpace=wrap;html=1;" vertex="1" parent="1">
          <mxGeometry x="165" y="205" width="80" height="80" as="geometry" />
        </mxCell>
        <mxCell id="RbTk8ViVsOvQG0BCYPqt-6" value="Ball class" style="ellipse;whiteSpace=wrap;html=1;" vertex="1" parent="1">
          <mxGeometry x="585" y="205" width="80" height="80" as="geometry" />
        </mxCell>
        <mxCell id="RbTk8ViVsOvQG0BCYPqt-10" value="middle line inside player when init" style="ellipse;whiteSpace=wrap;html=1;" vertex="1" parent="1">
          <mxGeometry x="520" y="70" width="80" height="80" as="geometry" />
        </mxCell>
        <mxCell id="RbTk8ViVsOvQG0BCYPqt-13" value="ball movement insdie ball clase&lt;div&gt;&lt;br&gt;&lt;/div&gt;" style="whiteSpace=wrap;html=1;" vertex="1" parent="1">
          <mxGeometry x="480" y="370" width="120" height="80" as="geometry" />
        </mxCell>
        <mxCell id="RbTk8ViVsOvQG0BCYPqt-12" style="edgeStyle=orthogonalEdgeStyle;rounded=0;orthogonalLoop=1;jettySize=auto;html=1;endArrow=none;" edge="1" parent="1">
          <mxGeometry relative="1" as="geometry">
            <mxPoint x="550" y="370" as="targetPoint" />
            <mxPoint x="490" y="245" as="sourcePoint" />
            <Array as="points">
              <mxPoint x="551" y="245" />
            </Array>
          </mxGeometry>
        </mxCell>
        <mxCell id="RbTk8ViVsOvQG0BCYPqt-16" value="player movement" style="rounded=0;whiteSpace=wrap;html=1;" vertex="1" parent="1">
          <mxGeometry x="90" y="440" width="120" height="90" as="geometry" />
        </mxCell>
        <mxCell id="RbTk8ViVsOvQG0BCYPqt-20" value="com with random moves" style="ellipse;whiteSpace=wrap;html=1;" vertex="1" parent="1">
          <mxGeometry x="40" y="580" width="120" height="80" as="geometry" />
        </mxCell>
        <mxCell id="RbTk8ViVsOvQG0BCYPqt-21" style="edgeStyle=orthogonalEdgeStyle;rounded=0;orthogonalLoop=1;jettySize=auto;html=1;entryX=0.107;entryY=1.007;entryDx=0;entryDy=0;entryPerimeter=0;" edge="1" parent="1" source="RbTk8ViVsOvQG0BCYPqt-20" target="RbTk8ViVsOvQG0BCYPqt-16">
          <mxGeometry relative="1" as="geometry" />
        </mxCell>
        <mxCell id="RbTk8ViVsOvQG0BCYPqt-23" style="edgeStyle=orthogonalEdgeStyle;rounded=0;orthogonalLoop=1;jettySize=auto;html=1;entryX=1;entryY=1;entryDx=0;entryDy=0;" edge="1" parent="1" source="RbTk8ViVsOvQG0BCYPqt-22" target="RbTk8ViVsOvQG0BCYPqt-16">
          <mxGeometry relative="1" as="geometry" />
        </mxCell>
        <mxCell id="RbTk8ViVsOvQG0BCYPqt-22" value="player with keypress moves" style="ellipse;whiteSpace=wrap;html=1;" vertex="1" parent="1">
          <mxGeometry x="240" y="580" width="120" height="80" as="geometry" />
        </mxCell>
        <mxCell id="RbTk8ViVsOvQG0BCYPqt-25" style="edgeStyle=orthogonalEdgeStyle;rounded=0;orthogonalLoop=1;jettySize=auto;html=1;entryX=1;entryY=1;entryDx=0;entryDy=0;" edge="1" parent="1" source="RbTk8ViVsOvQG0BCYPqt-24" target="RbTk8ViVsOvQG0BCYPqt-4">
          <mxGeometry relative="1" as="geometry">
            <mxPoint x="300" y="240" as="targetPoint" />
          </mxGeometry>
        </mxCell>
        <mxCell id="RbTk8ViVsOvQG0BCYPqt-24" value="count &amp;amp; show scores separately&amp;nbsp;" style="rounded=1;whiteSpace=wrap;html=1;" vertex="1" parent="1">
          <mxGeometry x="220" y="330" width="120" height="60" as="geometry" />
        </mxCell>
      </root>
    </mxGraphModel>
  </diagram>
</mxfile>
